<svg height="24" viewBox="0 0 24 24" width="24" xmlns="http://www.w3.org/2000/svg"><path d="m7.8887502 20.694583c-2.9929167-1.420833-5.1425-4.33125-5.4679167-7.777916h-1.375c.4675 5.646666 5.1883333 10.083333 10.9541665 10.083333.20625 0 .403333-.01833.605-.03208l-3.4924998-3.497084-1.22375 1.22375zm.8158333-5.98125c-.1741667 0-.3345833-.02292-.48125-.07792-.1420833-.050413-.2658333-.123746-.3666667-.215413-.1008333-.09167-.17875-.20625-.23375-.334583-.055-.132917-.0825-.275-.0825-.430834h-1.1916666c0 .33.064167.61875.1925.870834.1283333.252083.2979166.462916.5133333.627916.2154167.169584.4629167.293334.7470833.380417.2841667.09167.5775.132917.8891667.132917.3391667 0 .6554167-.04583.94875-.1375.2933333-.091667.5454165-.229167.7608335-.407917.215416-.17875.380417-.39875.504166-.66.119167-.26125.183333-.559167.183333-.89375 0-.17875-.02292-.348333-.06417-.513333-.04583-.165-.114583-.320834-.20625-.4675-.09625-.146667-.22-.275-.37125-.394167-.15125-.114583-.339167-.210833-.5545832-.28875.1833332-.0825.3437502-.183333.4812502-.3025s.252083-.2475.34375-.380417c.09167-.1375.160416-.275.20625-.421666.04583-.146667.06875-.293334.06875-.435417 0-.334583-.055-.627917-.165-.88s-.265833-.462917-.4675-.6325c-.201667-.1695833-.4399999-.2979167-.7241665-.385-.2933297-.0916667-.6049963-.1329167-.944163-.1329167-.33 0-.6370833.0504167-.9166667.1466667-.2795833.09625-.5179166.23375-.7195833.4079167-.2016667.1741663-.3575.3804163-.4720833.6187503-.1145834.238333-.1695834.499583-.1695834.779166h1.1916667c0-.155833.0275-.293333.0825-.4125.055-.12375.1329167-.229166.2291667-.311666.09625-.08708.2154166-.155834.3483333-.201667.1329167-.04583.2795833-.07333.4354167-.07333.3666666 0 .6370833.09625.8158333.284166.17875.187917.2658333.45375.2658333.792917 0 .165-.022917.311667-.073333.444583-.050417.132917-.12375.2475-.2245833.34375-.1008334.09625-.2291667.169584-.3758334.224584-.15125.055-.33.0825-.5316666.0825h-.7058334v.939583h.7058334c.2016666 0 .385.02292.5454166.06875.1604167.04583.2979167.114583.4125.215417.1145834.09625.2016667.22.2658334.366666.059583.146667.091667.320834.091667.5225 0 .37125-.1054166.655417-.3208333.8525-.20625.1925-.495.28875-.86625.28875zm7.8466665-5.43125c-.288749-.3024997-.637084-.5362497-1.040417-.7012497-.407917-.165-.8525-.2475-1.342917-.2475h-2.167916v7.3333337h2.10375c.50875 0 .967083-.0825 1.384166-.2475.417085-.165.77-.39875 1.063334-.70125.293333-.3025.5225-.669167.678333-1.095417.160417-.42625.238333-.9075.238333-1.439167v-.362083c0-.531667-.0825-1.008333-.242916-1.439167-.160417-.430833-.385-.7975-.67375-1.1zm-.362084 2.905834c0 .380416-.04125.72875-.132916 1.03125-.08708.307083-.215417.56375-.389583.774583s-.389583.37125-.650834.485833c-.26125.11-.56375.169584-.912082.169584h-.829584v-5.289167h.89375c.66 0 1.159584.210833 1.507917.627917.343749.421666.517916 1.026666.517916 1.824166v.375834zm-4.189166-11.187917c-.20625 0-.403333.018333-.605.032083l3.4925 3.4970834 1.219166-1.2191664c2.9975 1.41625 5.147084 4.3266667 5.4725 7.773333h1.375c-.4675-5.6466663-5.188333-10.083333-10.954166-10.083333z" fill="#ffffff"/></svg>