<svg height="24" viewBox="0 0 24 24" width="24" xmlns="http://www.w3.org/2000/svg"><path d="m18.471109 11.541667c.311667 0 .614167.0275.916667.06417l.0092-10.60583725-18.3333326 18.33333325h10.5966666c-.03667-.3025-.06417-.605-.06417-.916666 0-3.795 3.08-6.875 6.875-6.875zm3.400833 7.324166c.01833-.146666.03667-.293333.03667-.449166 0-.155834-.0092-.3025-.03667-.449167l.971667-.760833c.0825-.07333.11-.1925.055-.293334l-.916667-1.585833c-.055-.100833-.174166-.1375-.284166-.100833l-1.136667.458333c-.238333-.183333-.495-.339167-.779167-.449167l-.174166-1.21c-.0092-.11-.11-.1925-.22-.1925h-1.833334c-.11 0-.210833.0825-.229166.1925l-.174167 1.21c-.275.119167-.540833.265834-.779167.449167l-1.136666-.458333c-.100834-.03667-.22 0-.284167.100833l-.916667 1.585833c-.055.100834-.03667.22.055.293334l.971667.760833c-.01833.146667-.0275.293333-.0275.449167 0 .155833.0092.3025.0275.449166l-.971667.760834c-.0825.07333-.11.1925-.055.293333l.916667 1.585833c.055.100834.174167.1375.284167.100834l1.136666-.458334c.238334.183334.495.339167.779167.449167l.174167 1.21c.01833.11.11.1925.229166.1925h1.833334c.11 0 .210833-.0825.229166-.1925l.174167-1.21c.275-.119167.540833-.265833.77-.449167l1.145833.458334c.100834.03667.22 0 .284167-.100834l.916667-1.585833c.055-.100833.0275-.22-.055-.293333zm-3.400833.925834c-.760833 0-1.375-.614167-1.375-1.375 0-.760834.614167-1.375 1.375-1.375s1.375.614166 1.375 1.375c0 .760833-.614167 1.375-1.375 1.375z" fill="#ffffff"/></svg>