<svg height="24" viewBox="0 0 24 24" width="24" xmlns="http://www.w3.org/2000/svg"><path d="m11.998892 1.0000001a10.999885 10.999885 0 0 0 -10.998892 11.0011089 10.999885 10.999885 0 0 0  10.998892 10.998891 10.999885 10.999885 0 0 0  11.001108-10.998891 10.999885 10.999885 0 0 0 -11.001108-11.0011089zm0 .6893702a10.311197 10.311197 0 0 1 10.311738 10.3117387 10.311197 10.311197 0 0 1 -10.311738 10.309521 10.311197 10.311197 0 0 1 -10.3117381-10.309521 10.311197 10.311197 0 0 1  10.3117381-10.3117387zm.0011 1.0894716a9.2207742 9.2207742 0 0 0 -9.2211591 9.2211581 9.2207742 9.2207742 0 0 0  9.2211591 9.221159 9.2207742 9.2207742 0 0 0  9.221158-9.221159 9.2207742 9.2207742 0 0 0 -9.221158-9.2211581zm0 1.4164231a7.8051369 7.8051369 0 0 1 7.804735 7.804735 7.8051369 7.8051369 0 0 1 -7.804735 7.804735 7.8051369 7.8051369 0 0 1 -7.8047358-7.804735 7.8051369 7.8051369 0 0 1  7.8047358-7.804735zm2.525191 7.804735a2.5251912 2.5251912 0 0 1 -2.525191 2.525191 2.5251912 2.5251912 0 0 1 -2.5251911-2.525191 2.5251912 2.5251912 0 0 1  2.5251911-2.5251913 2.5251912 2.5251912 0 0 1  2.525191 2.5251913z" fill="#ffffff"/></svg>