<svg height="24" viewBox="0 0 24 24" width="24" xmlns="http://www.w3.org/2000/svg"><path d="m0 0h24v24h-24z" fill="none"/><path d="m5 2c0-.55-.45-1-1-1s-1 .45-1 1v4h-2v6h6v-6h-2zm4 14c0 1.3.84 2.4 2 2.82v4.18h2v-4.18c1.16-.41 2-1.51 2-2.82v-2h-6zm-8 0c0 1.3.84 2.4 2 2.82v4.18h2v-4.18c1.16-.42 2-1.52 2-2.82v-2h-6zm20-10v-4c0-.55-.45-1-1-1s-1 .45-1 1v4h-2v6h6v-6zm-8-4c0-.55-.45-1-1-1s-1 .45-1 1v4h-2v6h6v-6h-2zm4 14c0 1.3.84 2.4 2 2.82v4.18h2v-4.18c1.16-.41 2-1.51 2-2.82v-2h-6z" fill="#ffffff"/></svg>