<svg height="24" width="24" xmlns="http://www.w3.org/2000/svg"><path d="m17.33766 1039.2287c.842287.0001 1.06824.013 1.209953.045.282638.066.52456.1871.638528.3226l.08875.106-.08008.1061c-.04356.058-.201052.2788-.350651.4913-.406016.5768-.577605.716-1.067096.8615-.184858.055-.433218.061-2.982684.071-1.529286.01-2.779219 0-2.779219-.013 0-.04.45498-.6549.829003-1.1212.351001-.4375.372271-.4595.638529-.5931.537962-.2697.473633-.2637 2.787878-.2749h1.067099zm-3.443722-4.0022c-5.8404276 0-6.4792376.011-7.1277076.1191-.78505.1309-1.77262.6006-2.33549 1.1125-.1087.099-2.92029 3.976-3.32468 4.5844-.16278001.2449-.13537001.6315.0628.8572.14491.165.31454.2672.61472.3679.56431.1895.61555.1906 3.90476.2057l3.0303.015-.52381.7273c-.64991.9029-1.5909 2.2487-1.5909 2.2749 0 .011.53372.014 1.18398.01l1.18182-.01.41125-.5693c.226-.3134.42395-.6108.4394-.6602.0154-.049.3435006-.52.7316006-1.0476l.70562-.9589 3.915586-.013c3.862666-.013 3.917389-.014 4.205623-.084.320867-.079.638257-.2226.835499-.3788.08423-.067.346962-.4421.772727-1.1017l.645022-.9978-.01515-.2576c-.03542-.6248-.418438-.976-1.194805-1.0952-.319551-.049-.957965-.057-5.772725-.067l-5.4112516-.011-.38745.4957-.38744.4978 1.29437.017 1.2922106.015-.19914.2533c-.11007.1386-.42514.5465-.69913.9069-.2739902.3604-.5422406.7035-.5974006.7619-.13369.1417-.42304.2661-.7316.3139-.36875.057-5.10434.03-5.29221-.03-.17631-.057-.23265-.1124-.20779-.21.011-.043.7753-1.099 1.69697-2.3463 1.88166-2.5464 1.73219-2.3845 2.35714-2.5974l.32035-.1082 3.7489106-.011 3.751082-.01.274893-.3009.277053-.3008h.653681c.359048 0 .652068.01.651515.024-.000453.014-.371305.5405-.824676 1.1688l-.824674 1.1407.393939.011c.217241.01.413278 0 .435064-.01.02179-.01.421771-.5384.889611-1.1775l.850648-1.1602h.759737.759741l.125541-.1688c.06863-.092.123375-.1743.123375-.184 0-.01-2.631659-.017-5.848477-.017zm4.404758 1.2836-.188312.2532-.590906.8225-.186148.2619h.257577.177486.02381l.209955-.2857.207792-.2857h.547619c.287007 0 .521131.01.54329.017l-.21212.3009-.0087.011-.173161.2425h.450216l.177489-.2425.06494-.089.34199-.5022c.0187-.026.01887-.027.0368-.052.117709-.1662.222594-.3152.240259-.342.000905 0 .0125-.016.01298-.017l.0606-.082h-.445885l-.173161.2576-.201299.2857h-1.110389l.06277-.082c.05386-.069.146164-.198.205628-.2857l.108226-.1602h-.02165l.01731-.026h-.435066zm3.331168-.026h-.168833c-.05445 0-.110047.01-.164502.015-.193071.041-.345012.1178-.458873.2316l-.588743.8225c-.01872.034-.02376.071-.01298.1083-.000025 0 .00001 0 0 0h .0022c.000604.021.0067.039.01948.056.02321.032.09423.069.158009.084.06378.015.459396.029.878786.03.53445 0 .693137 0 .759741-.024h.0303l.164501-.1775h-.647185-.829004c-.0636 0-.101105-.01-.112552-.024.01901-.038.06325-.1064.114718-.1753l.125541-.1667h.560606.558441l.0368-.056h.0043l.13853-.1819h-1.129869l.06926-.095c.06508-.091.143415-.177.175323-.1926.03191-.016.381934-.036.777058-.045.483911-.012.639554-.017.70779-.043h.04329l.158008-.1775h-.326841-.257577-.785712z" fill="#ffffff" transform="translate(0 -1028.3622)"/></svg>