<svg height="24" viewBox="0 0 24 24" width="24" xmlns="http://www.w3.org/2000/svg"><path d="m0 0h24v24h-24z" fill="none"/><path d="m15.666667 12c0-1.152381-.942857-2.095238-2.095238-2.095238s-2.095239.942857-2.095239 2.095238.942858 2.095238 2.095239 2.095238 2.095238-.942857 2.095238-2.095238zm-2.095238-9.4285715c-5.2066671 0-9.4285719 4.2219048-9.4285719 9.4285715h-3.1428571l4.1904762 4.190476 4.1904762-4.190476h-3.1428572c0-4.0542857 3.2790477-7.3333334 7.3333338-7.3333334 4.054285 0 7.333333 3.2790477 7.333333 7.3333334 0 4.054285-3.279048 7.333333-7.333333 7.333333-1.581905 0-3.048572-.513333-4.2533338-1.361905l-1.487619 1.508572c1.5923809 1.215238 3.5828568 1.948571 5.7409528 1.948571 5.206666 0 9.428571-4.221905 9.428571-9.428571 0-5.2066667-4.221905-9.4285715-9.428571-9.4285715z" fill="#ffffff"/></svg>