<svg height="24" viewBox="0 0 24 24" width="24" xmlns="http://www.w3.org/2000/svg"><path d="m5.4 1h13.2a2.2 2.2 0 0 1 2.2 2.2v17.6a2.2 2.2 0 0 1 -2.2 2.2h-13.2a2.2 2.2 0 0 1 -2.2-2.2v-17.6a2.2 2.2 0 0 1 2.2-2.2m6.6 2.2a6.6 6.6 0 0 0 -6.6 6.6c0 3.641 2.959 6.6 6.71 6.6l-.968-2.453c-.297-.528-.121-1.199.407-1.507l.946-.55c.528-.297 1.199-.121 1.507.407l2.112 2.662c1.518-1.21 2.486-3.069 2.486-5.159a6.6 6.6 0 0 0 -6.6-6.6m0 5.5a1.1 1.1 0 0 1 1.1 1.1 1.1 1.1 0 0 1 -1.1 1.1 1.1 1.1 0 0 1 -1.1-1.1 1.1 1.1 0 0 1  1.1-1.1m-5.5 9.9a1.1 1.1 0 0 0 -1.1 1.1 1.1 1.1 0 0 0  1.1 1.1 1.1 1.1 0 0 0  1.1-1.1 1.1 1.1 0 0 0 -1.1-1.1m5.599-5.203 2.739 6.941 2.849-1.65-4.642-5.841z" fill="#ffffff"/></svg>