<svg height="24" viewBox="0 0 24 24" width="24" xmlns="http://www.w3.org/2000/svg"><path d="m0 0h24v24h-24z" fill="none"/><path d="m20.8 1h-17.6c-1.21 0-2.189.99-2.189 2.2l-.011 11c0 1.21.99 2.2 2.2 2.2h17.6c1.21 0 2.2-.99 2.2-2.2v-11c0-1.21-.99-2.2-2.2-2.2zm-9.9 3.3h2.2v2.2h-2.2zm0 3.3h2.2v2.2h-2.2zm-3.3-3.3h2.2v2.2h-2.2zm0 3.3h2.2v2.2h-2.2zm-1.1 2.2h-2.2v-2.2h2.2zm0-3.3h-2.2v-2.2h2.2zm9.9 7.7h-8.8v-2.2h8.8zm0-4.4h-2.2v-2.2h2.2zm0-3.3h-2.2v-2.2h2.2zm3.3 3.3h-2.2v-2.2h2.2zm0-3.3h-2.2v-2.2h2.2zm-7.7 16.5 4.4-4.4h-8.8z" fill="#ffffff"/></svg>