<svg height="24" viewBox="0 0 24 24" width="24" xmlns="http://www.w3.org/2000/svg"><path d="m11.989 1c-6.072 0-10.989 4.9279999-10.989 11 0 6.072 4.917 11 10.989 11 6.083 0 11.011-4.928 11.011-11 0-6.0720001-4.928-11-11.011-11zm7.623 6.6000003h-3.245c-.352-1.3750004-.858-2.6950004-1.518-3.9160004 2.024.693 3.707 2.101 4.763 3.9160004zm-7.612-4.3560003c.913 1.3199999 1.628 2.7829999 2.101 4.3560003h-4.202c.473-1.5730004 1.188-3.0360004 2.101-4.3560003zm-8.514 10.956c-.176-.704-.286-1.441-.286-2.2s.11-1.496.286-2.2h3.718c-.088.726-.154 1.452-.154 2.2s.066 1.474.154 2.2zm.902 2.2h3.245c.352 1.375.858 2.695 1.518 3.916-2.024-.693-3.707-2.09-4.763-3.916zm3.245-8.7999997h-3.245c1.056-1.8260004 2.739-3.2230004 4.763-3.9160004-.66 1.221-1.166 2.541-1.518 3.9160004zm4.367 13.1559997c-.913-1.32-1.628-2.783-2.101-4.356h4.202c-.473 1.573-1.188 3.036-2.101 4.356zm2.574-6.556h-5.148c-.099-.726-.176-1.452-.176-2.2s.077-1.485.176-2.2h5.148c.099.715.176 1.452.176 2.2s-.077 1.474-.176 2.2zm.275 6.116c.66-1.221 1.166-2.541 1.518-3.916h3.245c-1.056 1.815-2.739 3.223-4.763 3.916zm1.947-6.116c.088-.726.154-1.452.154-2.2s-.066-1.474-.154-2.2h3.718c.176.704.286 1.441.286 2.2s-.11 1.496-.286 2.2z" fill="#ffffff"/></svg>