<svg height="24" viewBox="0 0 24 24" width="24" xmlns="http://www.w3.org/2000/svg"><path d="m3.444444 15.666667h-2.444444v4.888889a2.4444444 2.4444444 0 0 0 2.444444 2.444444h4.888889v-2.444444h-4.888889m0-17.111112h4.888889v-2.444444h-4.888889a2.4444444 2.4444444 0 0 0 -2.444444 2.444444v4.8888889h2.444444m17.111112-7.3333329h-4.888889v2.444444h4.888889v4.8888889h2.444444v-4.8888889a2.4444444 2.4444444 0 0 0 -2.444444-2.444444m0 19.555556h-4.888889v2.444444h4.888889a2.4444444 2.4444444 0 0 0 2.444444-2.444444v-4.888889h-2.444444m-8.555556-8.5555563a4.8888889 4.8888889 0 0 0 -4.888889 4.8888893 4.8888889 4.8888889 0 0 0  4.888889 4.888889 4.8888889 4.8888889 0 0 0  4.888889-4.888889 4.8888889 4.8888889 0 0 0 -4.888889-4.8888893m0 7.3333333a2.4444444 2.4444444 0 0 1 -2.444444-2.444444 2.4444444 2.4444444 0 0 1  2.444444-2.4444448 2.4444444 2.4444444 0 0 1  2.444444 2.4444448 2.4444444 2.4444444 0 0 1 -2.444444 2.444444z" fill="#ffffff"/></svg>