<svg height="24" viewBox="0 0 24 24" width="24" xmlns="http://www.w3.org/2000/svg"><path d="m13.571431 2.5714288c-5.2066675 0-9.4285725 4.2219048-9.4285725 9.4285712h-3.142857l4.075238 4.075238.07333.146666 4.232381-4.221904h-3.142857c0-4.0542855 3.279048-7.3333331 7.3333335-7.3333331 4.054285 0 7.333333 3.2790476 7.333333 7.3333331 0 4.054285-3.279048 7.333333-7.333333 7.333333-2.021904 0-3.8552385-.827619-5.1752385-2.158095l-1.487619 1.487619c1.707619 1.707619 4.0542855 2.765714 6.6628575 2.765714 5.206666 0 9.428571-4.221905 9.428571-9.428571 0-5.2066664-4.221905-9.4285711-9.428571-9.4285711zm-1.047619 5.2380952v5.238095l4.483809 2.660952.754286-1.267618-3.666667-2.179048v-4.452381z" fill="#ffffff"/></svg>