<svg height="24" viewBox="0 0 24 24" width="24" xmlns="http://www.w3.org/2000/svg"><path d="m0 0h24v24h-24z" fill="none"/><path d="m10.894472 3.2331658v-2.2331658c-2.2221102.2211055-4.2452258 1.1055276-5.8814067 2.4432161l1.5698493 1.5809045c1.2271357-.9507538 2.6974874-1.5919598 4.3115574-1.7909548zm8.092463.2100503c-1.636181-1.3376885-3.659297-2.2221106-5.881407-2.4432161v2.2331658c1.61407.198995 3.084422.840201 4.311557 1.7909548zm1.779899 7.4512559h2.233166c-.221106-2.2221102-1.105528-4.2452258-2.443216-5.8814067l-1.580905 1.5698493c.950754 1.2271357 1.59196 2.6974874 1.790955 4.3115574zm-15.7427134-4.3115574-1.5809045-1.5698493c-1.3376885 1.6361809-2.2221106 3.6592965-2.4432161 5.8814067h2.2331658c.198995-1.61407.840201-3.0844217 1.7909548-4.3115574zm-1.7909548 6.5226134h-2.2331658c.2211055 2.22211 1.1055276 4.245226 2.4432161 5.881407l1.5809045-1.580905c-.9507538-1.21608-1.5919598-2.686432-1.7909548-4.300502zm12.0834172-1.105528c0-1.835176-1.481407-3.3165829-3.316583-3.3165829s-3.3165829 1.4814069-3.3165829 3.3165829 1.4814069 3.316583 3.3165829 3.316583 3.316583-1.481407 3.316583-3.316583zm3.659296 5.417085 1.580905 1.580905c1.337688-1.636181 2.22211-3.670352 2.443216-5.881407h-2.233166c-.198995 1.603015-.840201 3.073367-1.790955 4.300502zm-5.870351 3.349749v2.233166c2.22211-.221106 4.245226-1.105528 5.881407-2.443216l-1.580905-1.580905c-1.21608.950754-2.686432 1.59196-4.300502 1.790955zm-8.0924627-.21005c1.6361809 1.337688 3.6703518 2.22211 5.8814067 2.443216v-2.233166c-1.61407-.198995-3.0844217-.840201-4.3115574-1.790955z" fill="#ffffff"/></svg>