<svg height="24" viewBox="0 0 24 24" width="24" xmlns="http://www.w3.org/2000/svg"><path d="m0 0h24v24h-24z" fill="none"/><path d="m2.8333333 6.4999999h-1.8333333v4.5833341h.00917l-.00917 8.25c0 1.008333.825 1.833333 1.8333333 1.833333h16.4999997v-1.833333h-16.4999997zm18.3333337-1.8333333h-7.333334l-1.833333-1.8333333h-5.5c-1.0083333 0-1.8241667.825-1.8241667 1.8333333l-.00917 11.0000004c0 1.008333.825 1.833333 1.8333333 1.833333h14.6666674c1.008336 0 1.833336-.825 1.833336-1.833333v-9.1666671c0-1.0083333-.825-1.8333333-1.833333-1.8333333zm-13.7500003 10.0833334 4.1250003-5.5000003 3.208333 4.1341673 2.291667-2.759167 3.208333 4.125z" fill="#ffffff"/></svg>