<svg height="24" viewBox="0 0 24 24" width="24" xmlns="http://www.w3.org/2000/svg"><path d="m12 1c-5.4022224 0-9.777778 2.1877778-9.777778 4.8888889s4.3755556 4.8888891 9.777778 4.8888891c5.402222 0 9.777778-2.187778 9.777778-4.8888891s-4.375556-4.8888889-9.777778-4.8888889m-9.777778 7.3333333v3.6666667c0 2.701111 4.3755556 4.888889 9.777778 4.888889 5.402222 0 9.777778-2.187778 9.777778-4.888889v-3.6666667c0 2.7011107-4.375556 4.8888887-9.777778 4.8888887-5.4022224 0-9.777778-2.187778-9.777778-4.8888887m0 6.1111107v3.666667c0 2.701111 4.3755556 4.888889 9.777778 4.888889 5.402222 0 9.777778-2.187778 9.777778-4.888889v-3.666667c0 2.701112-4.375556 4.888889-9.777778 4.888889-5.4022224 0-9.777778-2.187777-9.777778-4.888889z" fill="#ffffff"/></svg>