<svg height="24" viewBox="0 0 24 24" width="24" xmlns="http://www.w3.org/2000/svg"><path d="m19.98975 1.8460388-1.646888 2.528036 1.294898 2.7251505-2.528037-1.6468873-2.725151 1.2948972 1.646888-2.528036-1.294898-2.7251505 2.528037 1.6468874zm-15.2735064 3.2969431-2.725151 1.2948972 1.646888-2.528036-1.294898-2.7251505 2.528036 1.6468874 2.725152-1.2948971-1.646888 2.5280359 1.294898 2.7251504zm9.1575564 10.9050631c.03001-.240081.05252-.480161.05252-.735247 0-.255085-.02252-.495165-.05252-.735246l1.58303-1.237913c.142547-.112538.180059-.315105.09003-.480161l-1.500502-2.595868c-.09003-.165056-.292598-.225076-.457653-.165056l-1.868124.750251c-.390132-.3001-.810272-.547682-1.267926-.735246l-.285094-1.9881643c-.022508-.1800603-.1800614-.3151055-.3676234-.3151055h-3.001004c-.187562 0-.345116.1350452-.367622.3151055l-.285096 1.9881643c-.457653.187564-.877793.442649-1.267924.735246l-1.868125-.750251c-.172558-.06752-.367623 0-.457652.165056l-1.500502 2.595868c-.09752.165056-.05252.367623.09003.480161l1.58303 1.237913c-.03001.240081-.05252.487663-.05252.735246s.02251.495166.05252.735247l-1.583029 1.237912c-.14254703.112539-.18006003.315106-.09003.480162l1.500502 2.595867c.09003.165057.292598.225076.457652.165057l1.868125-.750252c.39013.3001.810271.547683 1.267923.735246l.285097 1.988165c.02251.18006.180059.315105.367622.315105h3.001004c.187562 0 .3451154-.135045.3676234-.315105l.285094-1.988165c.457654-.187563.877794-.442649 1.267925-.735246l1.868125.750252c.172557.06752.367622 0 .457653-.165057l1.500502-2.595867c.09003-.165056.05251-.367623-.09003-.480162l-1.583032-1.237912zm-5.5743644 1.890632c-1.447984 0-2.625878-1.177894-2.625878-2.625879 0-1.447984 1.177894-2.625877 2.625878-2.625877s2.6258784 1.177893 2.6258784 2.625877c0 1.447985-1.1778944 2.625879-2.6258784 2.625879zm11.9754134-5.188447 2.72515-1.294897-1.646887 2.528036 1.294897 2.72515-2.528037-1.646887-2.725149 1.294897 1.646886-2.528036-1.294897-2.725151z" fill="#ffffff"/></svg>