<svg height="24" viewBox="0 0 24 24" width="24" xmlns="http://www.w3.org/2000/svg"><path d="m13.222222 1v11.317778c-.611111-.207778-1.222222-.317778-1.833333-.317778-2.3955555 0-4.3999995 1.540001-5.1577775 3.666667h-4.008889v3.666666h4.008889c.757778 2.126667 2.762222 3.666667 5.1577775 3.666667 2.395555 0 4.4-1.54 5.157777-3.666667h5.231111v-3.666666h-4.888888v-7.3333337-3.6666667-3.6666666h-3.666666m-1.833334 14.055556a2.4444444 2.4444444 0 0 1 2.444444 2.444445 2.4444444 2.4444444 0 0 1 -2.444444 2.444443 2.4444444 2.4444444 0 0 1 -2.4444445-2.444443 2.4444444 2.4444444 0 0 1  2.4444445-2.444445z" fill="#ffffff"/></svg>