<svg height="24" viewBox="0 0 24 24" width="24" xmlns="http://www.w3.org/2000/svg"><path d="m0 0h24v24h-24z" fill="none"/><path d="m13.571429 2.5714285c-5.2066671 0-9.4285719 4.2219048-9.4285719 9.4285715h-3.1428571l4.0752381 4.075238.073333.146666 4.232381-4.221904h-3.1428572c0-4.0542857 3.2790477-7.3333334 7.3333341-7.3333334 4.054285 0 7.333333 3.2790477 7.333333 7.3333334 0 4.054285-3.279048 7.333333-7.333333 7.333333-2.021905 0-3.8552388-.827619-5.1752388-2.158095l-1.4876188 1.487619c1.7076191 1.707619 4.0542856 2.765714 6.6628576 2.765714 5.206666 0 9.428571-4.221905 9.428571-9.428571 0-5.2066667-4.221905-9.4285715-9.428571-9.4285715zm-1.047619 5.2380953v5.2380952l4.483809 2.660952.754286-1.267619-3.666667-2.179048v-4.4523802z" fill="#ffffff"/></svg>