<svg height="24" viewBox="0 0 24 24" width="24" xmlns="http://www.w3.org/2000/svg"><path d="m9.8 1c-1.221 0-2.2.979-2.2 2.2v3.3c0 1.221.979 2.2 2.2 2.2h1.1v2.2h-9.9v2.2h4.4v2.2h-1.1c-1.221 0-2.2.979-2.2 2.2v3.3c0 1.221.979 2.2 2.2 2.2h4.4c1.221 0 2.2-.979 2.2-2.2v-3.3c0-1.221-.979-2.2-2.2-2.2h-1.1v-2.2h8.8v2.2h-1.1c-1.221 0-2.2.979-2.2 2.2v3.3c0 1.221.979 2.2 2.2 2.2h4.4c1.221 0 2.2-.979 2.2-2.2v-3.3c0-1.221-.979-2.2-2.2-2.2h-1.1v-2.2h4.4v-2.2h-9.9v-2.2h1.1c1.221 0 2.2-.979 2.2-2.2v-3.3c0-1.221-.979-2.2-2.2-2.2zm0 2.2h4.4v3.3h-4.4zm-5.5 14.3h4.4v3.3h-4.4zm11 0h4.4v3.3h-4.4z" fill="#ffffff"/></svg>