<svg height="24" viewBox="0 0 24 24" width="24" xmlns="http://www.w3.org/2000/svg"><path d="m12 9.5555557c-1.344444 0-2.444444 1.1000003-2.444444 2.4444443s1.1 2.444444 2.444444 2.444444 2.444444-1.1 2.444444-2.444444-1.1-2.4444443-2.444444-2.4444443zm8.555556-8.5555555h-17.111112c-1.356666 0-2.444444 1.1-2.444444 2.4444444v17.1111114c0 1.344444 1.087778 2.444444 2.444444 2.444444h17.111112c1.356666 0 2.444444-1.1 2.444444-2.444444v-17.1111114c0-1.3444444-1.087778-2.4444444-2.444444-2.4444444zm-2.138889 10.9999998c0 .281111-.02445.562222-.06111.831111l1.808888 1.417778c.158889.134444.207778.366666.09778.55l-1.711111 2.957778c-.11.183333-.33.256666-.525555.183333l-2.126667-.855556c-.44.342223-.928889.623334-1.442222.843334l-.317778 2.261111c-.03667.207778-.22.366667-.427778.366667h-3.422222c-.207778 0-.391111-.158889-.427778-.354445l-.317778-2.261111c-.525555-.22-1.002222-.501111-1.442222-.843333l-2.126667.855555c-.195555.07333-.415555 0-.525555-.183333l-1.711114-2.957778c-.11-.183333-.06111-.415556.09778-.55l1.808886-1.417777c-.03667-.281112-.06111-.562223-.06111-.843334s.02445-.562222.06111-.831111l-1.808888-1.4177777c-.158889-.1344444-.207778-.3666667-.09778-.55l1.711111-2.9577778c.11-.1833333.33-.2566666.525555-.1833333l2.126667.8555555c.44-.3422222.928889-.6233333 1.442222-.8433333l.317778-2.2611111c.03667-.2077778.22-.3666667.427778-.3666667h3.422222c.207778 0 .391111.1588889.427778.3544445l.317778 2.2611111c.525555.22 1.002222.5011111 1.442222.8433333l2.126667-.8555555c.195555-.073333.415555 0 .525555.1833333l1.711111 2.9577778c.11.1833333.06111.4155555-.09778.55l-1.808888 1.4177779c.03667.281111.06111.562222.06111.843333z" fill="#ffffff"/></svg>