<svg height="24" viewBox="0 0 24 24" width="24" xmlns="http://www.w3.org/2000/svg"><path d="m20.380952 11.47619h-1.571428v-4.1904757c0-1.1628572-.942857-2.0952381-2.095238-2.0952381h-4.190476v-1.5714286a2.6190476 2.6190476 0 0 0 -2.619048-2.6190476 2.6190476 2.6190476 0 0 0 -2.6190477 2.6190476v1.5714286h-4.1904762a2.0952381 2.0952381 0 0 0 -2.0952381 2.0952381v3.9809527h1.5714286c1.5714285 0 2.8285714 1.257143 2.8285714 2.828571 0 1.571429-1.2571429 2.828572-2.8285714 2.828572h-1.5714286v3.980952a2.0952381 2.0952381 0 0 0 2.0952381 2.095238h3.9809524v-1.571429c0-1.571428 1.2571428-2.828571 2.8285715-2.828571 1.571428 0 2.828571 1.257143 2.828571 2.828571v1.571429h3.980953a2.0952381 2.0952381 0 0 0 2.095238-2.095238v-4.190476h1.571428a2.6190476 2.6190476 0 0 0 2.619048-2.619048 2.6190476 2.6190476 0 0 0 -2.619048-2.619048z" fill="#ffffff"/></svg>