<svg height="24" viewBox="0 0 24 24" width="24" xmlns="http://www.w3.org/2000/svg"><path d="m20.380952 11.47619h-1.571428v-4.190476c0-1.1628569-.942857-2.0952377-2.095238-2.0952377h-4.190476v-1.5714286a2.6190476 2.6190476 0 0 0 -2.619048-2.6190476 2.6190476 2.6190476 0 0 0 -2.619048 2.6190476v1.5714286h-4.190476a2.0952381 2.0952381 0 0 0 -2.095238 2.0952377v3.980953h1.571429c1.571428 0 2.828571 1.257143 2.828571 2.828571 0 1.571429-1.257143 2.828572-2.828571 2.828572h-1.571429v3.980952a2.0952381 2.0952381 0 0 0 2.095238 2.095238h3.980952v-1.571429c0-1.571428 1.257143-2.828571 2.828572-2.828571 1.571428 0 2.828571 1.257143 2.828571 2.828571v1.571429h3.980953a2.0952381 2.0952381 0 0 0 2.095238-2.095238v-4.190476h1.571428a2.6190476 2.6190476 0 0 0 2.619048-2.619048 2.6190476 2.6190476 0 0 0 -2.619048-2.619048z" fill="#ffffff"/></svg>