<svg height="256" viewBox="0 0 256 256" width="256" xmlns="http://www.w3.org/2000/svg"><path d="m2.3339082 5.8615022c-.812368.32-1.37991274 1.1657142-1.37991274 2.1142856v13.7142862c0 1.257143.99042134 2.285714 2.22566584 2.285714h17.8053267c1.235244 0 2.225666-1.028571 2.225666-2.285714v-13.7142862c0-1.2685713-.990422-2.2857142-2.225666-2.2857142h-13.0201451l9.1919991-3.8171432-.756726-1.89714289zm4.1842519 15.8285718c-1.8473026 0-3.3384988-1.531429-3.3384988-3.428572 0-1.897142 1.4911962-3.428571 3.3384988-3.428571 1.8473027 0 3.3384984 1.531429 3.3384984 3.428571 0 1.897143-1.4911957 3.428572-3.3384984 3.428572zm14.4668279-9.142857h-2.225666v-2.285714h-2.225666v2.285714h-13.3539947v-4.5714292h17.8053267z" fill="#fff" stroke-width="1.127745" transform="matrix(9.3333333 0 0 9.3333333 15.118643 16.881356)"/></svg>