<svg height="24" viewBox="0 0 24 24" width="24" xmlns="http://www.w3.org/2000/svg"><path d="m12.004783 1c-2.9078265 0-5.5382612 1.1765217-7.4417395 3.08l1.3486957 1.3486957c1.5591304-1.5591305 3.7017391-2.5156522 6.0930438-2.5156522 2.391304 0 4.533913.9565217 6.083477 2.5252174l1.348696-1.3486957c-1.893913-1.9130435-4.524347-3.0895652-7.432173-3.0895652m-4.734783 5.7869565 1.3486957 1.3486957c.8704348-.8608696 2.0660873-1.3965218 3.3860873-1.3965218s2.515652.5356522 3.386087 1.3965218l1.348695-1.3486957c-1.214782-1.2147826-2.888695-1.9608695-4.734782-1.9608695s-3.5200004.7460869-4.734783 1.9608695m4.734783 8.5608695a1.9130435 1.9130435 0 0 1 -1.913044-1.913043 1.9130435 1.9130435 0 0 1  1.913044-1.913044 1.9130435 1.9130435 0 0 1  1.913044 1.913044 1.9130435 1.9130435 0 0 1 -1.913044 1.913043m2.869565-5.7391303h-5.7391306a.95652174.95652174 0 0 0 -.9565217.9565213v11.478261a.95652174.95652174 0 0 0  .9565217.956522h5.7391296a.95652174.95652174 0 0 0  .956522-.956522v-11.478261a.95652174.95652174 0 0 0 -.956521-.9565213z" fill="#ffffff"/></svg>