<svg height="24" viewBox="0 0 24 24" width="24" xmlns="http://www.w3.org/2000/svg"><path d="m12 1a11 11 0 0 0 -11 11 11 11 0 0 0  11 11 11 11 0 0 0  11-11 11 11 0 0 0 -11-11m-8.0666667 7.3333333h2.9333337a1.4666667 1.4666667 0 0 1 1.466666 1.4666667v1.466667c0 .733333-.557333 1.32-1.261333 1.422666l1.716 2.977334h-1.701333l-1.686667-2.933334v2.933334h-1.4666667m7.3333337-7.3333337h2.933333v1.4666667h-2.933333v1.466667h2.933333v1.466666h-2.933333v1.466667h2.933333v1.466667h-2.933333a1.4666667 1.4666667 0 0 1 -1.466667-1.466667v-4.4a1.4666667 1.4666667 0 0 1 1.466667-1.4666667m5.866666 0h2.933334v1.4666667h-2.933334v4.4h2.933334v1.466667h-2.933334a1.4666667 1.4666667 0 0 1 -1.466666-1.466667v-4.4a1.4666667 1.4666667 0 0 1 1.466666-1.4666667m-11.733333 1.4666667v1.466667h1.466667v-1.466667" fill="#ffffff"/></svg>