<svg height="24" viewBox="0 0 24 24" width="24" xmlns="http://www.w3.org/2000/svg"><path d="m6.2762805 9.7511885-1.638668-1.6502905c-1.045959 1.3481247-1.696778 2.905441-1.894348 4.520866h2.347596c.162705-1.011093.569467-1.998943 1.18542-2.8705755zm-1.18542 5.1949285h-2.347596c.19757 1.615426.836767 3.172742 1.882726 4.520867l1.638669-1.650291c-.604332-.871632-1.011094-1.84786-1.173799-2.870576zm1.173799 6.182779c1.348124 1.045959 2.917062 1.673534 4.5324885 1.871104v-2.359218c-1.0110945-.174327-1.9873225-.569467-2.8589545-1.197042zm6.8568415-16.5610144v-3.5678816l-5.2879035 5.2879028 5.2879035 5.1716852v-4.54411c3.300581.5578447 5.810882 3.416799 5.810882 6.868463s-2.510301 6.310618-5.810882 6.868463v2.347596c4.590595-.569466 8.135235-4.474379 8.135235-9.216059 0-4.7416801-3.544639-8.6465929-8.135235-9.2160594z" fill="#ffffff"/></svg>