<svg height="24" viewBox="0 0 24 24" width="24" xmlns="http://www.w3.org/2000/svg"><path d="m16.166403 6.2879027-5.287903-5.2879027v3.5678816c-4.578975.5694664-8.135235 4.4743791-8.135235 9.2160594 0 4.74168 3.544638 8.646593 8.135235 9.216059v-2.347596c-3.300581-.557845-5.810882-3.416799-5.810882-6.868463s2.510301-6.3106184 5.810882-6.8684631v4.5441101zm5.090332 6.3338623c-.19757-1.615426-.836767-3.1727425-1.882726-4.5208671l-1.65029 1.6502905c.627575.8716326 1.022715 1.8594826 1.18542 2.8705766zm-8.053882 8.019017v2.347596c1.615425-.19757 3.184363-.825145 4.532488-1.871104l-1.673534-1.673534c-.871633.627575-1.847861 1.034337-2.858954 1.197042zm4.520866-2.812467 1.65029 1.638669c1.045959-1.348125 1.685156-2.905441 1.882726-4.520867h-2.347596c-.162705 1.011094-.557845 1.998944-1.18542 2.882198z" fill="#ffffff"/></svg>