<svg height="24" viewBox="0 0 24 24" width="24" xmlns="http://www.w3.org/2000/svg"><path d="m0 0h24v24h-24z" fill="none"/><path d="m20.8 20.349v-12.749l-6.6-6.6h-8.8c-1.21 0-2.189.99-2.189 2.2l-.011 17.6c0 1.21.979 2.2 2.189 2.2h13.211c.495 0 .935-.165 1.309-.44l-4.873-4.873c-.88.572-1.914.913-3.036.913-3.036 0-5.5-2.464-5.5-5.5s2.464-5.5 5.5-5.5 5.5 2.464 5.5 5.5c0 1.122-.341 2.156-.913 3.025zm-12.1-7.249c0 1.826 1.474 3.3 3.3 3.3s3.3-1.474 3.3-3.3-1.474-3.3-3.3-3.3-3.3 1.474-3.3 3.3z" fill="#ffffff"/></svg>