<svg height="24" viewBox="0 0 24 24" width="24" xmlns="http://www.w3.org/2000/svg"><path d="m14.095239 5.1904763c0-1.152381-.942857-2.0952382-2.095239-2.0952382h-1.047618v-1.047619c0-.5761905-.471429-1.0476191-1.0476195-1.0476191h-4.190477c-.57619 0-1.047619.4714286-1.047619 1.0476191v1.047619h-1.047619c-1.152381 0-2.095238.9428572-2.095238 2.0952382v15.7142857c0 1.152381.942857 2.095238 2.095238 2.095238h8.3809525c1.152381 0 2.095239-.942857 2.095239-2.095238h8.380952v-15.7142857zm-2.095239 13.6190477h-2.0952375v-2.095238h2.0952375zm0-9.4285714h-2.0952375v-2.0952382h2.0952375zm4.190477 9.4285714h-2.095238v-2.095238h2.095238zm0-9.4285714h-2.095238v-2.0952382h2.095238zm4.190476 9.4285714h-2.095238v-2.095238h2.095238zm0-9.4285714h-2.095238v-2.0952382h2.095238z" fill="#ffffff"/></svg>