<svg height="24" viewBox="0 0 24 24" width="24" xmlns="http://www.w3.org/2000/svg"><path d="m20.17543 13.078c.044-.352.077-.704.077-1.078s-.033-.726-.077-1.078l2.321-1.815c.209-.165.264-.462.132-.704l-2.2-3.806c-.132-.242-.429-.33-.671-.242l-2.739 1.1c-.572-.44-1.188-.803-1.859-1.078l-.418-2.915c-.033-.264-.264-.462-.539-.462h-4.4000003c-.275 0-.506.198-.539.462l-.4180002 2.915c-.671.275-1.287.649-1.859 1.078l-2.739-1.1c-.253-.099-.539 0-.671.242l-2.1999999 3.806c-.143.242-.077.539.132.704l2.3209999 1.815c-.044.352-.077.715-.077 1.078s.033.726.077 1.078l-2.3209999 1.815c-.209.165-.264.462-.132.704l2.1999999 3.806c.132.242.429.33.671.242l2.739-1.1c.572.44 1.188.803 1.859 1.078l.4180002 2.915c.033.264.264.462.539.462h4.4000003c.275 0 .506-.198.539-.462l.418-2.915c.671-.275 1.287-.649 1.859-1.078l2.739 1.1c.253.099.539 0 .671-.242l2.2-3.806c.132-.242.077-.539-.132-.704zm-8.173 2.772c-2.1230003 0-3.8500005-1.727-3.8500005-3.85 0-2.1229999 1.7270002-3.85 3.8500005-3.85 2.123 0 3.85 1.7270001 3.85 3.85 0 2.123-1.727 3.85-3.85 3.85z" fill="#ffffff"/></svg>