<svg height="24" viewBox="0 0 24 24" width="24" xmlns="http://www.w3.org/2000/svg"><path d="m20.588067 9.5880683 2.411933 2.4119317-2.411933 2.411931-1.808948-1.808948-1.808948 1.808948-1.808949-1.808948-1.808949 1.808948h-2.725482c-.229133.434148-.524595.838147-.892415 1.205966a5.1164793 5.1164793 0 0 1 -7.235794 0 5.1164793 5.1164793 0 0 1  0-7.2357942 5.1164793 5.1164793 0 0 1  7.235794 0c .36782.3678195.663282.7718185.892415 1.2059655zm-16.8835194 1.2059657a1.7054931 1.7054931 0 0 0 0 2.411932 1.7054931 1.7054931 0 0 0  2.4119316 0 1.7054931 1.7054931 0 0 0  0-2.411932 1.7054931 1.7054931 0 0 0 -2.4119316 0z" fill="#ffffff"/></svg>