<svg height="24" width="24" xmlns="http://www.w3.org/2000/svg"><path d="m4.666731 1029.3622c-.574445 0-1.075555.2566-1.417777.6722l-1.686716 2.0534c-.354444.4156-.562238.941-.562238 1.5521v15.2779a2.4444445 2.4444445 0 0 0 2.444423 2.4444h17.111154a2.4444445 2.4444445 0 0 0 2.444423-2.4444v-15.2779c0-.6111-.207795-1.1365-.562238-1.5521l-1.6988-2.0534c-.33-.4156-.831248-.6722-1.405692-.6722zm-.08555 1.2223h14.666538l1.149031 1.2221h-16.805577zm4.9744 7.3333h4.888846v2.4444h4.277884l-6.722307 6.7223-6.722307-6.7223h4.277884zm10.25783 9.6384h.390939v1.1009c0 .2005-.05208.3567-.156337.469-.05414.06-.124215.1024-.210432.1264-.08622.022-.206626.033-.361015.033h-3.127895c-.196494 0-.356783-.054-.481095-.1623-.132334-.1163-.197475-.2716-.19547-.4661 0-.1805.06001-.3309.180315-.4512.122308-.1223.274659-.1836.457119-.1836l2.499476-.01c.118298.01.177439.07.177439.1865 0 .1243-.06233.1864-.186646.1864h-.01496c-.004 0-.0081 0-.01208 0h-2.406058c-.22256 0-.330774.088-.324759.2645.004.1784.123354.2678.357945.2678h3.127894c.152385 0 .243659-.053.273734-.1594.008-.044.01189-.1022.01189-.1744v-1.0257z" fill="#ffffff" transform="translate(0 -1028.3622)"/></svg>