<svg height="24" viewBox="0 0 24 24" width="24" xmlns="http://www.w3.org/2000/svg"><path d="m4.223 1.5115c-1.991 1.991-3.223 4.741-3.223 7.777s1.232 5.786 3.223 7.777l1.551-1.551c-1.595-1.584-2.574-3.784-2.574-6.226 0-2.431.979-4.642 2.574-6.226zm15.554 0-1.551 1.551c1.595 1.584 2.574 3.795 2.574 6.226 0 2.442-.979 4.642-2.574 6.226l1.551 1.551c1.991-1.991 3.223-4.741 3.223-7.777s-1.232-5.786-3.223-7.777m-12.441 3.113c-1.199 1.199-1.936 2.849-1.936 4.664s.737 3.465 1.936 4.664l1.551-1.551c-.792-.792-1.287-1.892-1.287-3.113s.495-2.321 1.287-3.113zm9.328 0-1.551 1.551c.792.792 1.287 1.892 1.287 3.113s-.495 2.321-1.287 3.113l1.551 1.551c1.199-1.199 1.936-2.849 1.936-4.664s-.737-3.465-1.936-4.664m-4.664 2.464a2.2 2.2 0 0 0 -2.2 2.2 2.2 2.2 0 0 0  2.2 2.2 2.2 2.2 0 0 0  2.2-2.2 2.2 2.2 0 0 0 -2.2-2.2m-1.1 6.6v4.4h-1.1a1.1 1.1 0 0 0 -1.1 1.1h-7.7v2.2h7.7a1.1 1.1 0 0 0 1.1 1.1h4.4a1.1 1.1 0 0 0 1.1-1.1h7.7v-2.2h-7.7a1.1 1.1 0 0 0 -1.1-1.1h-1.1v-4.4z" fill="#ffffff"/></svg>