<svg height="24" viewBox="0 0 24 24" width="24" xmlns="http://www.w3.org/2000/svg"><path d="m7 23h2v-2h-2zm4 0h2v-2h-2zm2-22.00000015h-2v10.00000015h2v-10.00000015zm3.56 2.43999995-1.45 1.4500001c1.73 1.0499999 2.89 2.9399999 2.89 5.11 0 3.3100001-2.69 6.0000001-6 6.0000001s-6-2.69-6-6.0000001c0-2.1700001 1.16-4.06 2.88-5.12l-1.44-1.44c-2.08 1.44-3.44 3.8399999-3.44 6.56 0 4.4200001 3.58 8.0000001 8 8.0000001s8-3.58 8-8.0000001c0-2.7200001-1.36-5.12-3.44-6.56zm-1.56 19.5600002h2v-2h-2z" fill="#ffffff"/></svg>