<svg height="24" viewBox="0 0 24 24" width="24" xmlns="http://www.w3.org/2000/svg"><path d="m10.777778 18.111111c0 .672222.55 1.222222 1.222222 1.222222s1.222222-.55 1.222222-1.222222-.55-1.222222-1.222222-1.222222-1.222222.55-1.222222 1.222222zm0-17.11111105v4.88888885h2.444444v-2.3466667c4.143334.5988889 7.333334 4.1433334 7.333334 8.4577779 0 4.73-3.825556 8.555556-8.555556 8.555556s-8.555556-3.825556-8.555556-8.555556c0-2.0533333.721112-3.9355555 1.931112-5.4022222l6.624444 6.6244442 1.723333-1.723333-8.311111-8.3111113v.024444c-2.676666 2.0044445-4.412222 5.1822223-4.412222 8.7877783 0 6.074444 4.913333 11 11 11 6.074444 0 11-4.925556 11-11 0-6.0744449-4.925556-11.00000045-11-11.00000045h-1.222222zm8.555555 11.00000005c0-.672222-.55-1.222222-1.222222-1.222222s-1.222222.55-1.222222 1.222222.55 1.222222 1.222222 1.222222 1.222222-.55 1.222222-1.222222zm-14.666666 0c0 .672222.55 1.222222 1.222222 1.222222s1.222222-.55 1.222222-1.222222-.55-1.222222-1.222222-1.222222-1.222222.55-1.222222 1.222222z" fill="#ffffff"/></svg>