<svg height="24" viewBox="0 0 24 24" width="24" xmlns="http://www.w3.org/2000/svg"><path d="m12 5.2950002c-3.87 0-7 3.1299996-7 6.9999998h2c0-2.7600002 2.24-5.0000002 5-5.0000002s5 2.24 5 5.0000002h2c0-3.8700002-3.13-6.9999998-7-6.9999998zm1 9.2899998c.88-.39 1.5-1.26 1.5-2.29 0-1.38-1.12-2.5000002-2.5-2.5000002s-2.5 1.1200002-2.5 2.5000002c0 1.02.62 1.9 1.5 2.29v3.3l-3.41 3.41 1.41 1.41 3-3 3 3 1.41-1.41-3.41-3.41zm-1-13.2899998c-6.07 0-11 4.9299996-11 10.9999998h2c0-4.9700002 4.03-8.9999998 9-8.9999998s9 4.0299996 9 8.9999998h2c0-6.0700002-4.93-10.9999998-11-10.9999998z" fill="#ffffff"/></svg>