<svg height="24" viewBox="0 0 24 24" width="24" xmlns="http://www.w3.org/2000/svg"><path d="m1 18v3h3c0-1.66-1.340001-3-3-3zm0-4.000001v2.000001c2.76 0 5 2.24 5 5h2c0-3.87-3.13-7.000001-7-7.000001zm18.000001-6.9999994h-14.000002v1.63c3.960001 1.2800009 7.090001 4.4099994 8.370001 8.3700004h5.630001zm-18.000001 3.0000004v2c4.97 0 9 4.03 9 9h2c0-6.08-4.930001-11-11-11zm20-7.0000005h-18c-1.1 0-2 .9-2 2v3.0000001h2v-3.0000001h18v14.0000005h-7v2h7c1.1 0 2-.9 2-2v-14.0000005c0-1.1-.9-2-2-2z" fill="#ffffff"/></svg>