<svg height="24" viewBox="0 0 24 24" width="24" xmlns="http://www.w3.org/2000/svg"><path d="m18.49 17.929c-.286-.88-1.111-1.529-2.09-1.529h-1.1v-3.3a1.1 1.1 0 0 0 -1.1-1.1h-6.6v-2.2h2.2a1.1 1.1 0 0 0 1.1-1.1v-2.2h2.2a2.2 2.2 0 0 0 2.2-2.2v-.451c3.223 1.298 5.5 4.455 5.5 8.151 0 2.288-.88 4.367-2.31 5.929m-7.59 2.794c-4.345-.539-7.7-4.235-7.7-8.723 0-.682.088-1.342.231-1.969l5.269 5.269v1.1a2.2 2.2 0 0 0 2.2 2.2m1.1-17.6a11 11 0 0 0 -11 11 11 11 0 0 0  11 11 11 11 0 0 0  11-11 11 11 0 0 0 -11-11z" fill="#ffffff"/></svg>