<svg height="24" viewBox="0 0 24 24" width="24" xmlns="http://www.w3.org/2000/svg"><path d="m3.4444444 1c-1.3566666 0-2.4444444 1.0877778-2.4444444 2.4444444v17.1111116a2.4444444 2.4444444 0 0 0 2.4444444 2.444444h17.1111116a2.4444444 2.4444444 0 0 0 2.444444-2.444444v-17.1111116c0-1.3566666-1.1-2.4444444-2.444444-2.4444444zm13.1755556 2.4444444h3.935556v14.8866666c-.317778-.977778-1.601112-1.698889-2.688889-1.698889h-1.222223v-3.666666a1.2222222 1.2222222 0 0 0 -1.222222-1.222223h-7.333333v-2.4444441h2.444444a1.2222222 1.2222222 0 0 0 1.222223-1.2222222v-2.4444445h2.444444c1.258889 0 2.285556-.9655555 2.42-2.1877778m-13.1755556 6.4655556 5.8666666 5.5v1.222222c0 1.356667 1.1 2.444445 2.444445 2.444445v1.478889h-8.3111116z" fill="#ffffff"/></svg>