<?xml version="1.0" encoding="UTF-8" standalone="no"?><!DOCTYPE svg PUBLIC "-//W3C//DTD SVG 1.1//EN" "http://www.w3.org/Graphics/SVG/1.1/DTD/svg11.dtd"><svg width="100%" height="100%" viewBox="0 0 17 9" version="1.1" xmlns="http://www.w3.org/2000/svg" xmlns:xlink="http://www.w3.org/1999/xlink" xml:space="preserve" xmlns:serif="http://www.serif.com/" style="fill-rule:evenodd;clip-rule:evenodd;stroke-linejoin:round;stroke-miterlimit:1.41421;"><path d="M12,0l-7.5,0c-2.483,0 -4.5,2.018 -4.5,4.5c0,2.483 2.018,4.5 4.5,4.5l7.5,0c2.482,0 4.5,-2.018 4.5,-4.5c0,-2.483 -2.018,-4.5 -4.5,-4.5Zm0,7.5l-7.5,0c-1.657,0 -3,-1.342 -3,-3c0,-1.658 1.343,-3 3,-3l7.5,0c1.658,0 3,1.342 3,3c0,1.658 -1.342,3 -3,3Zm0,-5.25c-1.245,0 -2.25,1.005 -2.25,2.25c0,1.245 1.005,2.25 2.25,2.25c1.245,0 2.25,-1.005 2.25,-2.25c0,-1.245 -1.005,-2.25 -2.25,-2.25Z" style="fill:#fff;fill-rule:nonzero;"/></svg>