<svg height="80" viewBox="0 0 52.916665 21.166667" width="200" xmlns="http://www.w3.org/2000/svg" xmlns:xlink="http://www.w3.org/1999/xlink"><filter id="a" color-interpolation-filters="sRGB" height="1.065388" width="1.032255" x="-.016127" y="-.032694"><feGaussianBlur stdDeviation=".25231486"/></filter><g transform="translate(0 -275.83332)"><path d="m5.3665705 288.40126c.00222-6.27245.062245-7.73799.3295111-8.10439 1.1958453-1.64156 4.3825004-2.92786 8.4264074-3.40234.959168-.11235 4.421008-.13671 19.384936-.13671h18.216263v19.27617h-46.3560027zm0 0" fill="#ceb38c" stroke-width=".185173"/><rect fill="none" height="19.84375" rx="1.311837" ry="1.295217" stroke="#13243c" stroke-width="1.322917" width="51.59375" x=".661458" y="276.49478"/><path d="m13.515748 276.49478 6.455553 10.00339-6.455553 9.87364z" fill="#13243c"/><path d="m.66145831 276.49478h13.383457v19.84375h-13.383457z" fill="#13243c"/><path d="m14.045047 277.15558v.15917l5.926254 9.18342-5.926254 9.06404v.11524h36.89749c.37625 0 .650608-.27711.650608-.6351v-17.25166c0-.35798-.274358-.63511-.650608-.63511z" fill="none" filter="url(#a)" opacity=".428" stroke="#13243c" stroke-width="1.068"/></g><g transform="matrix(.24804688 0 0 .25813008 20.799001 7.392374)"><path d="m10 5c-1.108 0-2 .892-2 2v36c0 1.108.892 2 2 2h28c1.108 0 2-.892 2-2v-26l-11-1-1-11z" opacity=".2"/><path d="m10 4c-1.108 0-2 .892-2 2v36c0 1.108.892 2 2 2h28c1.108 0 2-.892 2-2v-26l-11-1-1-11z" fill="#9264c3"/><path d="m10 4c-1.108 0-2 .892-2 2v1c0-1.108.892-2 2-2h18l11 11h1l-12-12z" fill="#fff" opacity=".2"/><path d="m28 5v10c0 1.1046.89543 2 2 2h10z" opacity=".2"/><path d="m28 4v10c0 1.1046.89543 2 2 2h10z" fill="#b783f6"/><g transform="matrix(.62011397 0 0 .62011397 -55.499412 -50.334612)"><path d="m120.70129 119.89363 9.9375 11.25 6.375-6.1875 6.1875 6.1875v5.0625h-30v-7.5z" opacity=".2"/><path d="m120.70129 118.89363 9.9375 11.25 6.375-6.1875 6.1875 6.1875v5.0625h-30v-7.5z" fill="#fff"/></g></g><g transform="matrix(.30834519 0 0 .32701387 .403238 2.412676)"><path d="m10 5c-1.108 0-2 .892-2 2v36c0 1.108.892 2 2 2h28c1.108 0 2-.892 2-2v-26l-11-1-1-11z" opacity=".2"/><path d="m10 4c-1.108 0-2 .892-2 2v36c0 1.108.892 2 2 2h28c1.108 0 2-.892 2-2v-26l-11-1-1-11z" fill="#c1a77c"/><path d="m10 4c-1.108 0-2 .892-2 2v1c0-1.108.892-2 2-2h18l11 11h1l-12-12z" fill="#fff" opacity=".2"/><path d="m28 5v10c0 1.1046.89543 2 2 2h10z" opacity=".2"/><path d="m28 4v10c0 1.1046.89543 2 2 2h10z" fill="#ceb38c"/><path d="m22 4v16c0 1.1.895 2 2 2s2-.9 2-2v-16z" opacity=".2"/><path d="m24 4v1h1v-1zm0 1h-1v1h1zm0 1v1h1v-1zm0 1h-1v1h1zm0 1v1h1v-1zm0 1h-1v1h1zm0 1v1h1v-1zm0 1h-1v1h1zm0 1v1h1v-1zm0 1h-1v1h1zm0 1v1h1v-1zm0 1h-1v1h1zm0 1v1h1v-1zm0 1h-1v1h1zm0 1v1h1v-1zm0 1h-1v1h1zm0 1v1c.552 0 1-.5 1-1z" opacity=".2"/><path d="m23 4v1h1v-1zm0 2v1h1v-1zm0 2v1h1v-1zm0 2v1h1v-1zm0 2v1h1v-1zm0 2v1h1v-1zm0 2v1h1v-1zm0 2v1h1v-1zm0 2c0 .5.448 1 1 1v-1z" fill="#ddd"/><path d="m24 21c-2.21 0-4 1.8-4 4v8c0 2.2 1.79 4 4 4s4-1.8 4-4v-8c0-2.2-1.79-4-4-4zm0 2c1.104 0 2 .8 2 2 0 1-.896 2-2 2s-2-1-2-2c0-1.2.896-2 2-2zm0 6c1.104 0 2 .8 2 2v2c0 1-.896 2-2 2s-2-1-2-2v-2c0-1.2.896-2 2-2z" opacity=".2"/><path d="m24 20c-2.21 0-4 1.8-4 4v8c0 2.2 1.79 4 4 4s4-1.8 4-4v-8c0-2.2-1.79-4-4-4zm0 2c1.104 0 2 .8 2 2 0 1-.896 2-2 2s-2-1-2-2c0-1.2.896-2 2-2zm0 6c1.104 0 2 .8 2 2v2c0 1-.896 2-2 2s-2-1-2-2v-2c0-1.2.896-2 2-2z" fill="#fff"/></g><g transform="matrix(.24804687 0 0 .25813008 30.129044 7.392365)"><path d="m10 5c-1.108 0-2 .892-2 2v36c0 1.108.892 2 2 2h28c1.108 0 2-.892 2-2v-26l-11-1-1-11z" opacity=".2"/><path d="m10 4c-1.108 0-2 .892-2 2v36c0 1.108.892 2 2 2h28c1.108 0 2-.892 2-2v-26l-11-1-1-11z" fill="#fe9700"/><path d="m10 4c-1.108 0-2 .892-2 2v1c0-1.108.892-2 2-2h18l11 11h1l-12-12z" fill="#fff" opacity=".2"/><path d="m28 5v10c0 1.1046.89543 2 2 2h10z" opacity=".2"/><path d="m28 4v10c0 1.1046.89543 2 2 2h10z" fill="#ffbd63"/><g stroke="#000" stroke-opacity=".8" stroke-width=".006746" transform="matrix(1.4013627 0 0 1.4013627 -56.027674 -391.97595)"><path d="m56.066454 296.94589c-.383832.10077-.692787.5007-.692787.88908v6.15811c-.388731-.19909-.888377-.27957-1.406568-.14801-.934563.23758-1.520283 1.00524-1.320145 1.71413.200488.70923 1.121406 1.10531 2.055969.86773.745621-.18964 1.259614-.72568 1.341838-1.2911l.02169-5.81942 4.847412-1.27011v4.59234c-.38908-.19909-.888727-.27956-1.406918-.148-.934563.23758-1.520283 1.00524-1.319794 1.71412.200138.70924 1.121056 1.10531 2.055618.86774.745971-.18965 1.259963-.72568 1.341839-1.29076l.02169-7.57657c0-.29111-.184043-.50909-.432816-.55003zm0 0" fill="#cb7900"/><path d="m56.066454 296.41672c-.383832.10077-.692787.5007-.692787.88908v6.15811c-.388731-.19909-.888377-.27957-1.406568-.14801-.934563.23758-1.520283 1.00524-1.320145 1.71413.200488.70923 1.121406 1.10531 2.055969.86773.745621-.18964 1.259614-.72568 1.341838-1.2911l.02169-5.81942 4.847412-1.27011v4.59234c-.38908-.19909-.888727-.27956-1.406918-.148-.934563.23758-1.520283 1.00524-1.319794 1.71412.200138.70924 1.121056 1.10531 2.055618.86774.745971-.18965 1.259963-.72568 1.341839-1.29076l.02169-7.57657c0-.29111-.184043-.50909-.432816-.55003zm0 0" fill="#fff"/></g></g><g transform="matrix(.24804688 0 0 .25813008 39.75008 7.437337)"><path d="m10 5c-1.108 0-2 .892-2 2v36c0 1.108.892 2 2 2h28c1.108 0 2-.892 2-2v-26l-11-1-1-11z" opacity=".2"/><path d="m10 4c-1.108 0-2 .892-2 2v36c0 1.108.892 2 2 2h28c1.108 0 2-.892 2-2v-26l-11-1-1-11z" fill="#4bae4f"/><path d="m10 4c-1.108 0-2 .892-2 2v1c0-1.108.892-2 2-2h18l11 11h1l-12-12z" fill="#fff" opacity=".1"/><path d="m28 5v10c0 1.1046.89543 2 2 2h10z" opacity=".2"/><path d="m28 4v10c0 1.1046.89543 2 2 2h10z" fill="#95cd97"/><g transform="matrix(.79066145 0 0 .79066145 3.838133 9.964663)"><path d="m16 18h13c1 0 1 1 1 1v12c0 1-1 1-1 1h-12.997s-1 0-1-1v-12s0-1 1-1zm19.997 1.5v11.5l-6-6z" opacity=".2"/><path d="m16 17h13c1 0 1 1 1 1v12c0 1-1 1-1 1h-12.997s-1 0-1-1v-12s0-1 1-1zm19.997 1.5v11.5l-6-6z" fill="#fff"/></g></g><g stroke-width=".264583"><g stroke-width=".264583"><path d="m18.313491 6.4057016v-3.535357h1.068324l.641477 2.4115669.634242-2.4115669h1.070736v3.535357h-.663181v-2.7829482l-.701766 2.7829482h-.687297l-.699354-2.7829482v2.7829482z"/><path d="m23.920384 5.590592.675239.1133437q-.130225.3713813-.412378.5667182-.279742.1929253-.701766.1929253-.668004 0-.988743-.4364936-.253214-.3496772-.253214-.8826335 0-.6366536.332796-.9959771.332796-.361735.841637-.361735.571541 0 .901926.378616.330384.3762044.315915 1.1551405h-1.697743q.0072.3014459.163987.4702556.156751.1663981.390673.1663981.159164 0 .267684-.086816.108521-.086816.163987-.2797418zm.03859-.684885q-.00724-.2942111-.151934-.4461399-.144694-.1543402-.352089-.1543402-.221864 0-.366558.1615749-.144694.161575-.142282.4389052z"/><path d="m27.535322 6.4057016h-.629419v-.3762044q-.156751.2194526-.371381.3279731-.212218.1061089-.429259.1061089-.441317 0-.757232-.3545003-.313503-.3569119-.313503-.9935656 0-.651123.306269-.9887424.306269-.3400309.774113-.3400309.429258 0 .742762.3569119v-1.2733073h.67765zm-1.808675-1.336008q0 .4099663.113344.5932454.163986.2652724.458198.2652724.233922 0 .397908-.1977485.163987-.2001601.163987-.595657 0-.4413168-.159164-.6342421-.159163-.1953369-.407555-.1953369-.241156 0-.405143.1929253-.161575.1905138-.161575.5715414z"/><path d="m28.205739 3.4973519v-.6270073h.67765v.6270073zm0 2.9083497v-2.561084h.67765v2.561084z"/><path d="m30.081938 4.6259653-.61495-.1109321q.103698-.3713813.356912-.5498373.253215-.1784559.752409-.1784559.453374 0 .675239.1085205.221864.1061089.311092.272507.09164.1639866.09164.6053033l-.0072.790994q0 .3376194.03135.4991943.03376.1591635.12299.3424425h-.670416q-.02653-.067524-.06511-.20016-.01688-.060289-.02412-.079582-.173633.1688097-.371381.2532145-.197748.084405-.422024.084405-.395497 0-.624596-.2146294-.226687-.2146295-.226687-.5426026 0-.217041.103697-.3858507.103697-.1712212.289388-.2604492.188102-.09164.540191-.1591634.475079-.089228.658358-.1663981v-.067524q0-.1953369-.09646-.2773302-.09646-.084405-.364146-.084405-.180868 0-.282154.072347-.101286.069935-.163986.2483914zm.906749.5498372q-.130225.043408-.412378.1036974-.282153.060289-.36897.1181668-.132636.094051-.132636.2387451 0 .1422824.106109.2459798.106109.1036974.270095.1036974.18328 0 .349678-.1205784.12299-.09164.161575-.2242757.02653-.086816.02653-.3303846z"/></g><path d="m32.192058 5.2698536.441317-.038585q.03135.2652723.144694.4364936.115755.1688096.356912.2749186.241156.1036974.542602.1036974.267684 0 .472667-.079582.204984-.079582.303858-.2170411.101286-.1398708.101286-.3038574 0-.1663981-.09646-.289388-.096466-.1254012-.31833-.209806-.142282-.0554661-.629419-.1712213-.487136-.1181668-.682473-.2218641-.253215-.1326362-.378616-.3279731-.12299-.1977485-.12299-.4413168 0-.2676839.151928-.4991943.151929-.233922.443729-.3545004.291799-.1205783.648711-.1205783.393086 0 .69212.127813.301446.1254015.463021.3713813.161575.2459799.173633.557072l-.448552.033762q-.03617-.3352078-.24598-.506429-.207394-.1712213-.614949-.1712213-.424436 0-.619773.1567519-.192925.1543403-.192925.3737928 0 .1905138.137459.3135037.135048.1229899.704178.2532146.571541.127813.783759.2242757.30868.1422824.455786.361735.147106.217041.147106.5016059 0 .2821534-.161575.5329563-.161575.2483914-.465433.3882623-.301446.1374593-.680062.1374593-.479901 0-.805463-.1398709-.32315-.139871-.508841-.4196127-.183279-.2821533-.192925-.6366537z"/><path d="m37.265996 5.4676021.426847.055466q-.06994.4413168-.359323.6921198-.286977.2483913-.706589.2483913-.525722 0-.84646-.3424425-.318327-.344854-.318327-.9863308 0-.4147895.137459-.7258817.137459-.3110921.417201-.4654324.282154-.1567518.612538-.1567518.417201 0 .682474.2122179.265272.2098063.340031.5980686l-.422025.065112q-.06029-.2580377-.214629-.3882623-.151929-.1302246-.36897-.1302246-.327973 0-.532956.2363335-.204983.233922-.204983.7427626 0 .5160754.197748.7499974.197749.2339219.516075.2339219.255627 0 .426848-.1567518.171221-.1567519.217041-.4823134z"/><path d="m39.73544 6.0897864q-.241157.2049832-.465432.289388-.221864.084405-.477491.084405-.422024 0-.648711-.2049831-.226687-.2073948-.226687-.5281332 0-.1881022.08441-.3424425.08682-.1567518.224275-.250803.139871-.094051.313504-.1422824.127813-.033762.385851-.065112.525721-.062701.774113-.1495172.0024-.089228.0024-.1133436 0-.2652724-.12299-.3737929-.166398-.1471056-.494371-.1471056-.306269 0-.453375.1085206-.144694.1061089-.214629.378616l-.424436-.057878q.05788-.2725071.190514-.4389052.132636-.1688097.383439-.2580377.250803-.091639.581188-.091639.327973 0 .532956.07717.204983.07717.301446.1953369.09646.1157552.135048.2942112.0217.1109321.0217.4003201v.5787761q0 .6053033.02653.7668782.02894.1591635.110932.306269h-.453367q-.067524-.1350482-.086817-.3159157zm-.03617-.9694499q-.236334.096463-.709001.1639865-.267684.038585-.378616.086816-.110932.048231-.171221.1422825-.06029.09164-.06029.2049832 0 .1736328.130224.289388.132636.1157552.385851.1157552.250803 0 .44614-.1085205.195337-.1109321.286976-.3014459.06994-.1471055.06994-.434082z"/><path d="m40.81341 6.4057016v-2.561084h.390674v.3641466q.282153-.4220242.815109-.4220242.231511 0 .424436.084405.195337.081993.2918.217041.09646.1350478.135047.3207384.02412.1205784.02412.4220242v1.574753h-.434086v-1.5578722q0-.2652723-.05064-.395497-.05064-.1326361-.180867-.2098063-.127813-.079582-.301446-.079582-.27733 0-.479902.1760444-.20016.1760444-.20016.668004v1.3987088z"/><path d="m43.562597 6.4057016v-2.561084h.390674v.3641466q.282153-.4220242.81511-.4220242.23151 0 .424436.084405.195336.081993.291799.217041.09646.1350478.135048.3207384.02412.1205784.02412.4220242v1.574753h-.434087v-1.5578722q0-.2652723-.05064-.395497-.05064-.1326361-.180868-.2098063-.127813-.079582-.301446-.079582-.27733 0-.479902.1760444-.20016.1760444-.20016.668004v1.3987088z"/><path d="m48.064992 5.5809458.448551.055466q-.106109.3930854-.393085.6101264-.286976.217041-.733116.217041-.561895 0-.89228-.344854-.327973-.3472657-.327973-.9718615 0-.6462999.332796-1.0032118.332796-.3569119.863341-.3569119.513664 0 .839225.3496772.325562.3496772.325562.9839193 0 .038585-.0024.1157552h-1.909973q.02412.4220242.238745.6462999.21463.2242757.535368.2242757.238745 0 .407555-.1254014.16881-.1254015.267684-.4003201zm-1.425236-.701766h1.430059q-.02894-.32315-.163986-.484725-.207395-.2508029-.53778-.2508029-.299034 0-.504017.20016-.202572.2001601-.224276.5353679z"/><path d="m49.056145 6.4057016v-2.561084h.390674v.3882623q.149517-.2725071.274919-.3593235.127813-.0868164.279742-.0868164.219452 0 .446139.1398709l-.149517.4027316q-.159163-.094051-.318327-.094051-.142282 0-.255626.086816-.113343.084405-.161575.2363336-.07235.2315104-.07235.506429v1.3408312z"/></g></svg>